# xmcd
#
# Track frame offsets:
#	150
#	16044
#	27791
#	40139
#	50022
#	63387
#	77680
#	91098
#	102060
#	114520
#	128989
#	139696
#	153209
#	165767
#	178506
#	191210
#
# Disc length: 2775 seconds
#
# Revision: 1
# Processed by: cddbd v1.5.2PL0 Copyright (c) Steve Scherf et al.
# Submitted via: audiograbber 1.83.01
#
DISCID=bc0ad510
DTITLE=DIE GRUBERTALER  - DAS BESTE DER GRUBERTALER 
DYEAR=2006
DGENRE=Volkstümlich
TTITLE0=DEM LAND TIROL DIE TREUE 
TTITLE1=URIG, FETZIG, BOARISCH 
TTITLE2=HEUT' GEMMA MUSIG LOS'N 
TTITLE3=RAMBA ZAMBA 
TTITLE4=A BISSERL MOZART, A BISSERL STRAUSS 
TTITLE5=MADE IM ALPENLAND 
TTITLE6=OH, OH BABY 
TTITLE7=DU, I KIMM' HEUT' NACHT ZU DIR 
TTITLE8=ES LEBE VOLKSMUSIK 
TTITLE9=SAN MA PER DU, DU UND I 
TTITLE10=PACK MA'S AN 
TTITLE11=MIR SAN GUAT DRAUF 
TTITLE12=DU BIST ALLES FÜR MI 
TTITLE13=ICH SCHENKE DIR EIN EDELWEISS
TTITLE14=HEIT' GIAH' MA NU LONG NIT HOAM 
TTITLE15=GRUBERTALER-HITMIX 
EXTD=
EXTT0=
EXTT1=
EXTT2=
EXTT3=
EXTT4=
EXTT5=
EXTT6=
EXTT7=
EXTT8=
EXTT9=
EXTT10=
EXTT11=
EXTT12=
EXTT13=
EXTT14=
EXTT15=
PLAYORDER=
